<svg width="207" height="30" viewBox="0 0 207 30" fill="none" xmlns="http://www.w3.org/2000/svg">
<path d="M22.32 6.39999C19.5733 4.79999 16.5333 3.87999 13.2 3.63999V29.24H10.24V3.63999C6.96 3.85332 3.90666 4.77332 1.08 6.39999L-4.26173e-06 4.07999C3.46666 2.02666 7.36 0.999989 11.68 0.999989C16.08 0.999989 19.9867 2.02666 23.4 4.07999L22.32 6.39999ZM45.7509 8.19999V29.24H43.0309V25.4C42.2843 26.68 41.2576 27.68 39.9509 28.4C38.6443 29.0933 37.1509 29.44 35.4709 29.44C32.6976 29.44 30.5109 28.68 28.9109 27.16C27.3376 25.6133 26.5509 23.36 26.5509 20.4V8.19999H29.3909V20.12C29.3909 22.3333 29.9376 24.0133 31.0309 25.16C32.1243 26.3067 33.6976 26.88 35.7509 26.88C37.9643 26.88 39.7109 26.2133 40.9909 24.88C42.2709 23.52 42.9109 21.64 42.9109 19.24V8.19999H45.7509ZM66.9925 29.24L60.3125 20.44L53.5925 29.24H50.3925L58.7125 18.44L50.7925 8.19999H53.9925L60.3125 16.44L66.6325 8.19999H69.7525L61.8325 18.44L70.2325 29.24H66.9925ZM93.0166 8.19999V29.24H90.2966V25.4C89.5499 26.68 88.5232 27.68 87.2166 28.4C85.9099 29.0933 84.4166 29.44 82.7366 29.44C79.9632 29.44 77.7766 28.68 76.1766 27.16C74.6032 25.6133 73.8166 23.36 73.8166 20.4V8.19999H76.6566V20.12C76.6566 22.3333 77.2032 24.0133 78.2966 25.16C79.3899 26.3067 80.9632 26.88 83.0166 26.88C85.2299 26.88 86.9766 26.2133 88.2566 24.88C89.5366 23.52 90.1766 21.64 90.1766 19.24V8.19999H93.0166ZM119.618 8.19999V29.24H116.898V25.4C116.151 26.68 115.125 27.68 113.818 28.4C112.511 29.0933 111.018 29.44 109.338 29.44C106.565 29.44 104.378 28.68 102.778 27.16C101.205 25.6133 100.418 23.36 100.418 20.4V8.19999H103.258V20.12C103.258 22.3333 103.805 24.0133 104.898 25.16C105.991 26.3067 107.565 26.88 109.618 26.88C111.831 26.88 113.578 26.2133 114.858 24.88C116.138 23.52 116.778 21.64 116.778 19.24V8.19999H119.618ZM110.018 5.19999C108.205 5.19999 106.765 4.74666 105.698 3.83999C104.631 2.93332 104.085 1.65332 104.058 -1.00136e-05H106.098C106.125 1.03999 106.498 1.87999 107.218 2.51999C107.938 3.13332 108.871 3.43999 110.018 3.43999C111.165 3.43999 112.098 3.13332 112.818 2.51999C113.565 1.87999 113.951 1.03999 113.978 -1.00136e-05H116.018C115.991 1.65332 115.431 2.93332 114.338 3.83999C113.271 4.74666 111.831 5.19999 110.018 5.19999ZM154.048 8.19999V29.24H151.208V20.48C148.782 21.5467 146.395 22.08 144.048 22.08C141.515 22.08 139.542 21.5067 138.128 20.36C136.715 19.1867 136.008 17.44 136.008 15.12V8.19999H138.848V14.96C138.848 16.5333 139.355 17.7333 140.368 18.56C141.382 19.36 142.782 19.76 144.568 19.76C146.542 19.76 148.755 19.24 151.208 18.2V8.19999H154.048ZM181.234 8.19999V29.24H178.514V25.08C177.66 26.4933 176.527 27.5733 175.114 28.32C173.727 29.0667 172.154 29.44 170.394 29.44C168.42 29.44 166.634 28.9867 165.034 28.08C163.434 27.1733 162.18 25.9067 161.274 24.28C160.367 22.6533 159.914 20.8 159.914 18.72C159.914 16.64 160.367 14.7867 161.274 13.16C162.18 11.5333 163.434 10.28 165.034 9.39999C166.634 8.49332 168.42 8.03999 170.394 8.03999C172.1 8.03999 173.634 8.39999 174.994 9.11999C176.38 9.81332 177.514 10.84 178.394 12.2V8.19999H181.234ZM170.634 26.92C172.1 26.92 173.42 26.5867 174.594 25.92C175.794 25.2267 176.727 24.2533 177.394 23C178.087 21.7467 178.434 20.32 178.434 18.72C178.434 17.12 178.087 15.6933 177.394 14.44C176.727 13.1867 175.794 12.2267 174.594 11.56C173.42 10.8667 172.1 10.52 170.634 10.52C169.14 10.52 167.794 10.8667 166.594 11.56C165.42 12.2267 164.487 13.1867 163.794 14.44C163.127 15.6933 162.794 17.12 162.794 18.72C162.794 20.32 163.127 21.7467 163.794 23C164.487 24.2533 165.42 25.2267 166.594 25.92C167.794 26.5867 169.14 26.92 170.634 26.92ZM198.023 29.44C195.943 29.44 194.076 28.9867 192.423 28.08C190.796 27.1733 189.516 25.9067 188.583 24.28C187.65 22.6267 187.183 20.7733 187.183 18.72C187.183 16.6667 187.65 14.8267 188.583 13.2C189.516 11.5733 190.796 10.3067 192.423 9.39999C194.076 8.49332 195.943 8.03999 198.023 8.03999C199.836 8.03999 201.45 8.39999 202.863 9.11999C204.303 9.81332 205.436 10.84 206.263 12.2L204.143 13.64C203.45 12.6 202.57 11.8267 201.503 11.32C200.436 10.7867 199.276 10.52 198.023 10.52C196.503 10.52 195.13 10.8667 193.903 11.56C192.703 12.2267 191.756 13.1867 191.063 14.44C190.396 15.6933 190.063 17.12 190.063 18.72C190.063 20.3467 190.396 21.7867 191.063 23.04C191.756 24.2667 192.703 25.2267 193.903 25.92C195.13 26.5867 196.503 26.92 198.023 26.92C199.276 26.92 200.436 26.6667 201.503 26.16C202.57 25.6533 203.45 24.88 204.143 23.84L206.263 25.28C205.436 26.64 204.303 27.68 202.863 28.4C201.423 29.0933 199.81 29.44 198.023 29.44Z" fill="#115771"/>
</svg>
